Coordinates
version=1
nRows=10
nColumns=40
inDegrees=yes

Units are S.I. units (second, meters, Newtons, ...)
Angles are in degrees.

endheader
time	pelvis_tilt	pelvis_list	pelvis_rotation	pelvis_tx	pelvis_ty	pelvis_tz	hip_flexion_r	hip_adduction_r	hip_rotation_r	knee_angle_r	knee_angle_r_beta	ankle_angle_r	subtalar_angle_r	mtp_angle_r	hip_flexion_l	hip_adduction_l	hip_rotation_l	knee_angle_l	knee_angle_l_beta	ankle_angle_l	subtalar_angle_l	mtp_angle_l	lumbar_extension	lumbar_bending	lumbar_rotation	arm_flex_r	arm_add_r	arm_rot_r	elbow_flex_r	pro_sup_r	wrist_flex_r	wrist_dev_r	arm_flex_l	arm_add_l	arm_rot_l	elbow_flex_l	pro_sup_l	wrist_flex_l	wrist_dev_l
      6.48250000	     -4.94232588	     -2.78331873	     -0.14584946	      0.83872369	      0.92510818	      0.45897511	      0.02005464	     -2.68950439	    -15.86331907	     25.46256347	     25.46256347	     15.72495194	      9.04998935	    -11.52951645	     24.69693923	     -2.22381441	     -3.95639040	     23.76353117	     23.76353117	      7.89321436	    -15.48276636	      6.82696596	     -6.33027995	      7.41551210	      4.80944231	     12.99867058	    -18.66559151	     -8.23568502	     87.91302704	     37.43493602	      0.00000000	      0.00000000	     -4.81418885	     -8.45528182	     -3.18221953	     33.25509631	     38.63928898	      0.00000000	      0.00000000
      6.49485714	     -4.90911594	     -2.75183255	     -0.33149257	      0.83924203	      0.92562838	      0.45658605	      1.31206612	     -3.40102513	    -15.04424301	     28.72331313	     28.72331313	     14.55757210	      7.52732279	    -13.14108760	     24.09753507	     -2.10327752	     -4.17996916	     23.83518069	     23.83518069	      8.46117803	    -15.41721935	      6.45039968	     -6.34462615	      7.34453506	      4.90133971	     11.50505640	    -18.57948895	     -8.87231767	     85.28757005	     37.79862408	      0.00000000	      0.00000000	     -4.02255579	     -8.54645116	     -2.91239051	     34.20527072	     38.85237492	      0.00000000	      0.00000000
      6.50721429	     -4.78862139	     -2.61469495	     -0.48332168	      0.83969698	      0.92610198	      0.45421886	      2.75451041	     -4.30914982	    -14.38230586	     32.41668092	     32.41668092	     13.36290213	      6.23963239	    -14.21526542	     23.35413804	     -1.86453038	     -4.47092846	     23.80055495	     23.80055495	      9.02091264	    -15.22601543	      6.12388115	     -6.48054893	      7.15275141	      4.79947285	      9.95145208	    -18.52681049	     -8.99440619	     83.47569055	     37.94259787	      0.00000000	      0.00000000	     -3.14806735	     -8.65789087	     -2.84879643	     35.02719585	     38.92782128	      0.00000000	      0.00000000
      6.51957143	     -4.74483426	     -2.65893215	     -0.58251914	      0.83998464	      0.92642856	      0.45213425	      4.29019054	     -4.76668169	    -13.32882963	     35.77221208	     35.77221208	     10.47871070	      3.31520380	    -18.68838761	     22.76251018	     -1.82750344	     -4.67582629	     23.84567980	     23.84567980	      9.43108250	    -15.03229414	      5.49644106	     -6.46656250	      7.11499349	      4.41172939	      9.19881581	    -17.76347479	    -10.04179164	     79.23608133	     38.72282665	      0.00000000	      0.00000000	     -3.06167297	     -9.24291835	     -1.62793856	     37.71893725	     39.35907519	      0.00000000	      0.00000000
      6.53192857	     -4.57053127	     -2.55274192	     -0.70180616	      0.84024316	      0.92675615	      0.45004593	      6.00701281	     -5.54481917	    -12.52402108	     39.80922864	     39.80922864	      8.78249055	      1.60895914	    -18.99234596	     21.99739412	     -1.61621720	     -4.90424526	     23.84640028	     23.84640028	      9.96739917	    -14.88271462	      5.19622947	     -6.66836349	      6.94204323	      4.36353422	      7.50496016	    -17.77812631	     -9.99306957	     77.56241552	     38.83429601	      0.00000000	      0.00000000	     -2.04541608	     -9.40058591	     -1.62660546	     38.55614186	     39.42828617	      0.00000000	      0.00000000
      6.54428571	     -4.51699430	     -2.72494012	     -0.81816231	      0.84024100	      0.92697700	      0.44839246	      7.95614315	     -5.63369575	    -11.14193253	     43.68577520	     43.68577520	      6.52105944	     -1.53667042	    -19.20842620	     21.45195747	     -1.74183638	     -5.04837739	     23.96431130	     23.96431130	     10.42987468	    -14.64120573	      4.71936752	     -6.69787709	      7.03354140	      4.50466073	      6.26391002	    -17.46683475	    -10.86266860	     73.55901274	     39.21135405	      0.00000000	      0.00000000	     -1.38155157	     -9.75640754	     -1.12054450	     40.62980453	     39.58911000	      0.00000000	      0.00000000
      6.55664286	     -4.45310815	     -2.61801864	     -0.90680027	      0.84017845	      0.92712469	      0.44658796	      9.99912375	     -6.18859798	    -10.20833599	     47.66917165	     47.66917165	      4.42594897	     -3.48163529	    -18.83856786	     20.80463991	     -1.53288854	     -5.23800759	     23.89153511	     23.89153511	     10.84410246	    -14.47014220	      4.44706273	     -6.77494699	      6.86502986	      4.42115690	      4.67652250	    -17.33287080	    -10.98255875	     71.27676784	     39.36988188	      0.00000000	      0.00000000	     -0.42761945	    -10.03231178	     -0.98772408	     41.91202442	     39.66541636	      0.00000000	      0.00000000
      6.56900000	     -4.24484539	     -2.78397667	     -0.95307516	      0.84011254	      0.92747731	      0.44518383	     11.86822701	     -6.16080852	     -9.10171382	     51.40495824	     51.40495824	      2.52430505	     -5.86277185	    -17.10231756	     20.11412899	     -1.64862987	     -5.32850403	     24.03124190	     24.03124190	     11.31221796	    -14.29018832	      3.97975217	     -6.94880901	      6.91448755	      4.32813474	      3.89889966	    -16.82074083	    -11.79733855	     66.60860496	     39.76924864	      0.00000000	      0.00000000	      0.16568346	    -10.62061841	     -0.17784637	     44.55616636	     39.80789037	      0.00000000	      0.00000000
      6.58135714	     -4.11304233	     -2.68237727	     -1.00331397	      0.83989934	      0.92776356	      0.44362886	     13.85706940	     -6.55322288	     -8.29913814	     54.98849565	     54.98849565	      0.63617158	     -7.31682307	    -16.19939939	     19.36357401	     -1.43240071	     -5.43508880	     23.86995440	     23.86995440	     11.69233484	    -14.14534523	      3.80291528	     -7.11019293	      6.74044656	      4.12179003	      2.33328882	    -16.59377052	    -11.74156130	     64.70901508	     39.87945921	      0.00000000	      0.00000000	      1.20722705	    -10.94680690	     -0.13254829	     45.68686141	     39.86945591	      0.00000000	      0.00000000
      6.59371429	     -3.99176784	     -2.83883037	     -1.08848639	      0.83960598	      0.92817787	      0.44253029	     15.96940878	     -6.39494881	     -7.30033755	     58.60102609	     58.60102609	      0.71640236	     -7.78802135	     -9.84917879	     18.66221683	     -1.52073719	     -5.43338298	     23.77350633	     23.77350633	     12.02338452	    -14.13573274	      3.45402231	     -7.20042130	      6.74166387	      3.61888174	      2.53982542	    -15.93519102	    -11.98166666	     58.20719661	     40.75855896	      0.00000000	      0.00000000	      1.02793314	    -12.07792008	      1.43702880	     49.79845619	     40.49678021	      0.00000000	      0.00000000
